<svg enable-background="new 0 0 140 140" height="512" viewBox="0 0 140 140" width="512" xmlns="http://www.w3.org/2000/svg"><circle cx="70" cy="70" fill="#de594e" r="64"/><path d="m134.0000153 70.0000458c0-1.5375977-.0735474-3.057373-.1801758-4.567627l-24.8301468-24.8303185c-.6400146-.7102051-1.5700073-1.1000977-2.460022-1.4401855-1.0999756-.4199219-2.2699585-.8098145-3.4299927-.5998535-1.3499756.2399902-2.4199829 1.25-3.3699951 2.25-.4400024.4599609-.8800049.9499512-1.0800171 1.5600586-.3399658 1.0300293.1400146 2 .25 3.0100098.0599976.4799805-.0199585.9799805.0100098 1.4599609-.1300049.6699219-.2299805 1.4699707-.2399902 2.3198242v.0102539c0 .0698242-.0100098.1298828-.0100098.1999512v.0397949c.0100098.3200684.0400391.6601562.1400146 1.0200195.6599731 2.380127-1.0599976 7.1501465-2.25 8.0800781-1.1900024.9301758-7.0200195 6.0900841-9.1400146 8.4799767-2.1199951 2.380127-14.5700073 10.0600586-27.9500084 7.4101562-11.7699585-2.3300781-25.5-9.380127-28.619997-11.0400352-.4199829-.2202148-.6499634-.3500977-.6499634-.3500977s-.7800293.2600098-1.5300293.9899864c-.7699585.7399902-1.5199585 1.9699707-1.3899536 3.9099121.0199585.130127.0299683.2700195.039978.4101562.0100098.0600586.0200195.1201172.0299683.1799316.0200195.1398926.0400391.2800293.0599976.4299316.0300293.1401367.0500488.2900391.0800171.4401855.0300293.1398926.0700073.2897949.1000366.4499512.039978.1699219.0799561.3398438.1199951.5200195.039978.1499023.0799561.2998047.1300049.4599609.0499878.1899414.1099854.3901367.1699829.5898438.0499878.1601562.0999756.3100586.1499634.4702148.0700073.2099609.1500244.4299316.2300415.6499023.0599976.1601562.1099854.3200684.1799927.4799805.0800171.2299805.1799927.4599609.2799683.6899414.0599976.1601562.1300049.3200684.2000122.4799805.1099854.2402344.2200317.4799805.3300171.7299805.0800171.1601562.1500244.3200684.2299805.4802246.1300049.2399902.2600098.4899902.3900146.7399902.0900269.1599121.1699829.3198242.2600098.4799805.1400146.25.289978.5.4400024.75.0999756.1499023.1900024.3100586.289978.4699707.1600342.25.3300171.5.5.7399902.1000366.1599121.210022.3100586.3200073.4599609.1699829.25.3599873.4899902.5499897.7299805.1099854.1499023.2300415.3000488.3500366.4501953.1900024.2397461.3999634.4599609.6099854.699707.1199951.1401367.25.2802734.3800049.420166l4.3588257 4.3588867c-.0162354.029541-.0358276.0617676-.0488281.0910645-.0300293.0600586-.0499878.1201172-.0700073.1801758-.0499878.0998535-.0900269.199707-.1300049.3098145-.0200195.0700684-.0299683.1398926-.0499878.2099609-.0300293.1101074-.0599976.2199707-.0800171.3300781-.0100098.0900879-.0200195.1799316-.0200195.2700195-.0199585.1101074-.0299683.2199707-.039978.3400879 0 .2099609.0100098.4299316.0300293.6699219.0099487.0800781.0199585.1599121.0299683.2399902.3192139 1.9450684 2.2290039 5.2258301 5.291687 8.3139648l-.0008545.0002441.0187988.0187988c.003479.003418.006958.0068359.010376.0102539l36.7577477 36.6071777c30.7200315-4.6943354 54.2525709-31.2304682 54.2525709-63.2624506z" opacity=".1"/><path d="m108.0818024 52.0892372s.660675-2.321907 1.8476868-5.249649c1.1870041-2.927742-10.3991852-2.1679916-10.3991852-2.1679916s-.8869553 2.0898666-.870842 4.7012329c.0161209 2.6113663 5.8429871 6.1252098 5.8429871 6.1252098z" fill="#feda6f"/><path d="m104.502449 48.1751175v8.818058s0 1.2197075-.205658 3.2017174c-.7800522 7.6125412-4.5632629 26.4967346-22.8695068 31.0422516-23.0716133 5.733345-42.8953896-6.2332535-42.8953896-6.2332535-7.2934246-3.7123184-10.7539921-12.6119156-11.2184734-16.6788025-.0177231-.1418152-.0283699-.280098-.0389957-.4112854-.134737-1.9394913.6133919-3.1733704 1.3827934-3.914402.755228-.7268753 1.5317287-.9857025 1.5317287-.9857025s.2269268.1240883.6524105.351017c3.1201782 1.6558151 16.8454361 8.7081375 28.6205559 11.0411911 13.3777695 2.6485977 25.8301468-5.0348434 27.9504471-7.4175186 2.116745-2.3826904 7.945816-7.5487213 9.1371689-8.477684 1.1913376-.9254112 2.9145279-5.6943283 2.2514877-8.0805511-.6594849-2.3826942 1.1948853-4.1058807 1.1948853-4.1058807z" fill="#feda6f"/><g fill="#fed35b"><path d="m112.5652771 72.335228c-.4999542 5.3681335-7.1196976 22.8517838-23.6034622 29.4715271-16.4837723 6.6162109-23.6034622 4.3718033-33.7156944 1.9962082-9.9065742-2.322403-16.937603-11.5907593-17.5758171-15.4909897-.0141983-.081543-.0248222-.1630859-.0319214-.2411041-.1914558-1.8933716.6382141-3.052803 1.5707245-3.737114.9041405-.6630402 1.9075661-.8793182 2.1663933-.8828659h.0070992c.4999275 0 16.8596077 4.1200562 29.0921402 3.8683014 12.2360764-.2481995 20.9832077-8.6159439 24.2310486-14.983963 3.2478104-6.3679886 6.6197433-11.6155624 6.6197433-11.6155624l1.4962769-10.1122284h5.1199112c.2517471 3.3719254 1.1239929 7.8678207 1.1239929 7.8678207 3.6236495 2.7443351 3.995941 8.4883117 3.499565 13.8599701z"/><path d="m108.1716232 52.8522606 1.8826218-6.5278778-5.0208969.2408294-.8724976 2.4760018.5537186 2.2873573 2.7476196 2.7118111.6366883-1.2969551z"/><path d="m103.3896637 58.6747437 1.1959686-9.1328659-.4247665-3.9140968s-2.909462-1.4496651-3.0544281 1.8483124c-.1449585 3.2980003-1.3126373 9.1766891-1.3126373 9.1766891s-7.4175186 16.955349-29.3190613 22.7844124c-18.582798 4.9426575-36.7401314-10.6121521-41.8175201-15.4377937-.7694016.7410316-1.5175304 1.9749107-1.3827934 3.914402.2659245 3.843483 3.708746 13.246582 11.2574692 17.0900879 0 0 19.8237762 11.9665985 42.8953896 6.2332535 18.3062439-4.545517 22.0894547-23.4297104 22.8695068-31.0422516l-1.932518-1.5201492h1.0253905z"/></g><path d="m98.6591873 74.7214737c-7.5275802 12.9538193-14.2180939 17.4765549-31.0280533 18.0615921-16.8099899.5885696-28.1206551-7.2331543-28.1206551-7.2331543l-.3013725-1.216156c.9041405-.6630402 1.9075661-.8793182 2.1663933-.8828659h.0070992c.4999275 0 16.8596077 4.1200562 29.0921402 3.8683014 12.2360764-.2481995 20.9832077-8.6159439 24.2310486-14.983963 3.2478104-6.3679886 6.6197433-11.6155624 6.6197433-11.6155624l2.1246414-16.3447876 1.8585968 1.6435852-.7850494 4.588974c.3616409 3.3506545.9235077 12.4328422-5.8645325 24.1140365z" fill="#feda6f"/><g fill="#304551"><path d="m110.1093445 44.8215446c-.0396194-1.4866943-.1306458-3.109333-1.1225586-4.2174835-.6405334-.7156029-1.5636063-1.1003799-2.46138-1.4415054-1.0962677-.4165688-2.266098-.8078384-3.4208603-.6033516-1.3549423.239933-2.4282913 1.2495728-3.3743057 2.2488251-.4406128.4653893-.8848343.9589958-1.083107 1.5684509-.3350677 1.029808.1407471 1.995842.2574615 3.0103722.0697937.6065941-.0923004 1.2611694.0619965 1.8544159.1753159.6740952.8089905 1.4044571 1.5418396 1.3931389.8283081-.0127907 1.4583664-.7936401 2.2953033-.8322906.4066162 1.2384033 2.4153137 1.6369896 2.5355301 1.1302681.1201935-.5067024 2.0654144-.2461281 2.6247864-.565136.1783218-.1016922.3938446-.10429.594635-.1470299.6641159-.1412926 1.1570358-.7361832 1.3708038-1.3806305.055954-.1686783.0961838-.3408127.1247559-.5152054.0805893-.49189.0684586-1.0017624.0550995-1.5028382z"/><path d="m31.5823879 64.7936249c-.0709171.4183884-.1489105.8580475-.4254818 1.180687-.0957184.1170197-.21628.2127533-.3049221.3368454-.1418133.198555-.1879082.4467545-.3190975.6488647-.0957394.1453629-.2269268.2552719-.3581142.3687363-.2233791.1879349-.4432068.3758392-.6665859.5637741-.351017.2942963-.71978.5992126-1.1665363.7055817-.3616428.081543-.7871265-.0106277-1.0282288-.2730255-.0177231-.1418152-.0283699-.280098-.0389957-.4112854-.134737-1.9394913.6133919-3.1733704 1.3827934-3.914402.755228-.7268753 1.5317287-.9857025 1.5317287-.9857025s.2269268.1240883.6524105.351017c.0177231.0212708.0354481.0425453.0496235.0638199.1099129.1666565.1489315.4183846.3013935.5495949.0779934.0673485.1843815.0921669.2659245.1559868.1843814.1489332.1595592.4290312.1240882.6595076z"/><path d="m41.400322 84.0181885c-.0638199.4644775-.3226433.8722382-.5956688 1.2516251-.8580437 1.1842346-1.9252892 2.2160339-3.1343498 3.04216-.0141983-.081543-.0248222-.1630859-.0319214-.2411041-.3758392-3.7335663 3.2159157-4.6129074 3.7371178-4.6199799.0390205.198555.0460967.3935623.0248222.5672989z"/></g></svg>