<?xml version="1.0" ?><!DOCTYPE svg  PUBLIC '-//W3C//DTD SVG 1.1//EN'  'http://www.w3.org/Graphics/SVG/1.1/DTD/svg11.dtd'><svg enable-background="new 0 0 50 50" height="50px" version="1.1" viewBox="0 0 50 50" width="50px" xml:space="preserve" xmlns="http://www.w3.org/2000/svg" xmlns:xlink="http://www.w3.org/1999/xlink"><g id="Layer_13"/><g id="Layer_12"/><g id="Layer_11"><path clip-rule="evenodd" d="M30.875,22.551c3.73-1.991,5.092-4.227,7.553-7.32   c-0.735,2.982-1.249,5.165-3.233,7.663c-2.805,3.534-6.483,6.149-10.516,8.172c-2.46,1.234-5.028,2.243-7.637,3.114   c-5.106-0.566-11.567-2.806-13.946-7.717l0.46-0.978C12.661,26.704,22.538,27.004,30.875,22.551 M41.549,14.467   c0.589-2.095,0.139-3.632-0.578-5.586l0.82-0.232c0.267,1.797,0.77,3.638,1.959,5.057c2.982,3.552,4.349,7.639,2.718,12.191   c-1.827,5.1-6.843,9.423-11.339,12.307c-5.554,3.565-16.144,5.826-21.652,1.096l0.033-1.087c4.165-1.181,8.448-2.627,12.43-4.624   c4.378-2.196,8.385-5.052,11.467-8.935C40.176,21.167,40.433,18.433,41.549,14.467z M43.405,23.03   c-0.9,5.906-9.225,12.033-14.408,13.75l0.781,2.374c6.108-2.017,15.052-8.863,16.098-15.753L43.405,23.03z M44.283,5.156   c-2.289,0.491-4.478,1.139-6.761,1.63c0.255,1.191,0.174,1.385,0.102,2.575c-0.074,1.207-0.159,2.573-1.087,3.713   c-2.288,2.806-3.563,5.158-6.99,6.987c-8.421,4.497-18.542,3.629-27.658,2.335L0,26.412c2.085,5.144,6.195,7.884,11.371,9.468   l-0.618,0.17l-0.135,4.429c6.807,6.679,18.627,4.864,26.041,0.105c5.061-3.249,10.405-7.982,12.467-13.734   c1.987-5.548,0.451-10.598-3.206-14.959c-0.451-0.538-0.767-1.228-0.996-2.039C44.501,8.358,44.418,6.705,44.283,5.156z" fill-rule="evenodd"/></g><g id="Layer_10"/><g id="Layer_9"/><g id="Layer_8"/><g id="Layer_7"/><g id="Layer_6"/><g id="Layer_5"/><g id="Layer_4"/><g id="Layer_3"/><g id="Layer_2"/></svg>