<?xml version="1.0" ?><svg id="Слой_1" style="enable-background:new -49 141 512 512;" version="1.1" viewBox="-49 141 512 512" xml:space="preserve" xmlns="http://www.w3.org/2000/svg" xmlns:xlink="http://www.w3.org/1999/xlink"><style type="text/css">
	.st0{fill:#E7E23A;}
	.st1{fill:#D0CA3D;}
	.st2{fill:#B3AA48;}
	.st3{fill:#D0C66A;}
</style><g><g><path class="st0" d="M92.1,425.1c84.4,26.4,231.3,13.2,260.9-124.8c-0.5-0.4-15.7-19.7-24.9-13.3c0,0-4,3.4-5.6,5.5    c-5.1,7.2-2.8,4-2.8,4C181,435.9,15.2,313.8-3.1,309.2c-17-4.3-31.2-12-33.2-13.1l-3,31.3C-27.9,343.4,17.7,401.9,92.1,425.1z"/><path class="st1" d="M381.8,333c-0.2-9.9-0.2-19.1,0-27.9l0,0l-28.7-4.8c0,0,0,0-0.1,0c-29.6,138-176.5,151.2-260.9,124.8    c-74.3-23.3-120-81.7-131.3-97.7v0l-0.7,1l-8.3,11.7c0.5,3.4,0.9,7.3,1.1,11.5c0.7,16,75.5,141.7,281.7,116.7    C234.6,468.3,383.9,447.8,381.8,333z"/><path class="st2" d="M-39.8,326.8l3.4-30.6c-0.2-0.1-0.4-0.2-0.4-0.2l-11.8,27.3c0,0-1.3,7.3,0.2,16.9l8.3-11.7L-39.8,326.8z"/><path class="st2" d="M-39.3,327.4l3-31.3l-3.4,30.6C-39.7,327-39.4,327.2-39.3,327.4z"/><path class="st2" d="M-40,328.4l0.7-1v0c-0.1-0.2-0.4-0.5-0.5-0.7L-40,328.4z"/><path class="st3" d="M353,300.3c0.7-3.3,1.4-6.7,2-10.1c4-24.4,8.1-44.1,12.2-60.2c-5.8-1.8-11.7-3.4-17.5-5    c-16.5,59.1-26.2,66.3-26.2,66.3C332.7,284.9,352.5,299.9,353,300.3z"/><path class="st2" d="M367.2,230c-4.1,16.2-8.2,35.8-12.2,60.2c-0.6,3.5-1.3,6.8-2,10.1c0,0,0.1,0,0.1,0l28.7,4.8l0,0    c0.5-28.5,2.5-51.1,5.3-69C380.5,234.1,373.8,232,367.2,230z"/></g><g><path class="st0" d="M231.2,536.1c89.3-17.9,215.5-102.7,173.8-242c-0.7-0.1-24-10-29.1,0.3c0,0-2,5-2.3,7.8c-1.1,9-0.6,5-0.6,5    C316.9,501.7,106.6,473.6,87.8,478.6c-17.5,4.6-34.1,4.7-36.5,4.7l12.8,29.7C82.4,521.7,152.6,551.9,231.2,536.1z"/><path class="st1" d="M447.3,309.3c-5.1-8.9-9.6-17.2-13.8-25.1v0l-28.3,9.8c0,0-0.1,0-0.1,0c41.7,139.3-84.5,224.1-173.8,242    c-78.6,15.8-148.8-14.4-167-23.2l0,0l-0.1,1.2l-1.8,14.7c2.2,2.8,4.5,6.1,6.7,9.8c8.6,14.1,138.4,90.5,312.3-34.2    C381.3,504.5,506,411.9,447.3,309.3z"/><path class="st2" d="M63.4,512.5l-12-29.3c-0.2,0-0.5,0-0.5,0l2.9,30.5c0,0,2.4,7.2,8.5,15.1l1.8-14.7L63.4,512.5z"/><path class="st2" d="M64.2,512.9l-12.8-29.7l12,29.3C63.6,512.6,64,512.8,64.2,512.9z"/><path class="st2" d="M64.1,514.1l0.1-1.2l0,0c-0.2-0.1-0.6-0.3-0.8-0.4L64.1,514.1z"/><path class="st3" d="M405.1,294.1c-1-3.4-2-6.7-3.2-10.2c-8.5-24-14.5-43.8-18.8-60.4c-6.1,1.3-12.2,2.7-18.3,4.1    c14.3,61.5,9.2,72.8,9.2,72.8C379.1,290.2,404.4,293.9,405.1,294.1z"/><path class="st2" d="M383,223.5c4.3,16.6,10.4,36.4,18.8,60.4c1.2,3.4,2.2,6.8,3.2,10.2c0,0,0.1,0,0.1,0l28.3-9.8v0    c-13.7-26-23.1-47.4-29.4-64.9C397,220.6,390,222,383,223.5z"/></g></g></svg>